<?xml version="1.0" encoding="utf-8"?>
<!-- Generator: Adobe Illustrator 16.0.0, SVG Export Plug-In . SVG Version: 6.00 Build 0)  -->
<!DOCTYPE svg PUBLIC "-//W3C//DTD SVG 1.1//EN" "http://www.w3.org/Graphics/SVG/1.1/DTD/svg11.dtd">
<svg version="1.1" id="Layer_1" xmlns="http://www.w3.org/2000/svg" xmlns:xlink="http://www.w3.org/1999/xlink" x="0px" y="0px"
	 width="100px" height="100px" viewBox="0 0 100 100" enable-background="new 0 0 100 100" xml:space="preserve">
<g>
	<g>
		<path fill-rule="evenodd" clip-rule="evenodd" fill="#231F20" d="M67.273,16.694c-0.285,1.011-0.618,2.216-0.966,3.416
			c-4.521,15.593-9.047,31.185-13.569,46.777c-2.133,7.354-4.267,14.706-6.403,22.059c-0.444,1.53-1.3,2.001-2.834,1.558
			c-2.805-0.808-5.608-1.623-8.412-2.438c-1.733-0.504-2.174-1.274-1.678-2.985c3.777-13.018,7.56-26.033,11.336-39.051
			C47.877,35.244,51,24.455,54.125,13.668c0.464-1.602,1.27-2.05,2.878-1.585c2.863,0.829,5.725,1.653,8.587,2.485
			C66.69,14.888,67.289,15.58,67.273,16.694z"/>
		<path fill-rule="evenodd" clip-rule="evenodd" fill="#231F20" d="M81.471,51.295c-1.433-1.273-2.736-2.44-4.048-3.596
			c-3.218-2.833-6.445-5.651-9.652-8.494c-1.106-0.98-1.124-2.028-0.118-3.097c2.083-2.211,4.155-4.429,6.253-6.626
			c1.044-1.095,2.061-1.101,3.179-0.05c4.421,4.162,8.834,8.335,13.257,12.497c2.709,2.55,5.441,5.076,8.145,7.632
			c1.368,1.294,1.376,2.164,0.014,3.444c-6.506,6.115-13.026,12.217-19.54,18.327c-0.652,0.61-1.272,1.256-1.928,1.861
			c-1.078,0.995-2.098,0.98-3.113-0.083c-2.138-2.24-4.257-4.497-6.373-6.758c-0.885-0.946-0.853-2.006,0.146-2.898
			c2.729-2.44,5.488-4.845,8.234-7.267C77.73,54.599,79.533,53.007,81.471,51.295z"/>
		<path fill-rule="evenodd" clip-rule="evenodd" fill="#231F20" d="M33.684,37.755c-0.326,0.487-0.561,1.054-0.974,1.422
			c-3.196,2.857-6.427,5.677-9.647,8.509c-1.141,1.003-2.267,2.022-3.428,3c-0.519,0.438-0.522,0.75-0.004,1.198
			c2.699,2.343,5.377,4.707,8.061,7.066c1.7,1.494,3.41,2.978,5.085,4.5c0.991,0.9,1.032,1.955,0.148,2.902
			c-2.094,2.242-4.195,4.479-6.313,6.698c-1.094,1.146-1.868,1.198-3.084,0.146c-1.215-1.051-2.37-2.173-3.541-3.274
			C14.67,64.926,9.357,59.922,4.042,54.924c-0.76-0.714-1.544-1.403-2.286-2.134c-1.066-1.053-1.084-1.966,0-2.997
			c2.979-2.831,5.986-5.633,8.981-8.447c4.123-3.875,8.246-7.752,12.372-11.624c0.26-0.244,0.537-0.474,0.826-0.683
			c0.749-0.542,1.645-0.549,2.284,0.114c2.316,2.401,4.603,4.83,6.869,7.277C33.367,36.731,33.449,37.214,33.684,37.755z"/>
	</g>
</g>
</svg>
