<?xml version="1.0" encoding="utf-8"?>
<!-- Generator: Adobe Illustrator 16.0.0, SVG Export Plug-In . SVG Version: 6.00 Build 0)  -->
<!DOCTYPE svg PUBLIC "-//W3C//DTD SVG 1.1//EN" "http://www.w3.org/Graphics/SVG/1.1/DTD/svg11.dtd">
<svg version="1.1" id="Layer_1" xmlns="http://www.w3.org/2000/svg" xmlns:xlink="http://www.w3.org/1999/xlink" x="0px" y="0px"
	 width="200px" height="53.5px" viewBox="0 0 200 53.5" enable-background="new 0 0 200 53.5" xml:space="preserve">
<rect x="7.75" y="9.5" fill="none" width="188.5" height="40.75"/>
<g enable-background="new    ">
	<path fill="#FFFFFF" d="M17.668,38.674c0.522,0.115,1.102,0.405,1.102,1.044c0,0.754-1.45,2.668-2.958,4.697
		c-0.754,1.044-1.972,2.727-3.422,2.727c-1.392,0-1.972-0.813-1.972-2.088c0-2.552,4.118-8.874,5.51-11.31
		c-1.392-0.87-2.61-1.914-2.61-3.712c0-3.364,6.844-4.931,9.28-5.685l9.222-12.18c-10.149,0.174-18.211,3.886-19.952,3.886
		c-0.348,0-0.928-0.058-0.928-0.58c0-1.392,3.364-5.857,4.292-7.134c1.044-1.449,2.784-1.913,4.408-2.378
		c5.046-1.449,10.382-2.03,15.602-2.03c14.384,0,18.386,4.64,18.386,11.832c0,12.354-15.021,21.054-33.581,18.966L17.668,38.674z
		 M27.817,23.594c2.146,0,4.524-0.812,4.524,0.29c0,1.16-4.93,1.45-5.858,2.088l-1.276,1.914c2.146,0.58,4.118,0.696,5.974,0.58
		c11.368-0.638,18.85-8.932,18.211-12.586c-0.638-3.538-11.542-4.233-14.209-4.233c-0.058,1.565-0.406,2.319-1.276,3.538
		L27.817,23.594z"/>
	<path fill="#FFFFFF" d="M60.239,40.413c-1.102,0.87-4.814,3.887-6.147,3.887c-1.624,0-4.988-3.828-5.104-6.844
		c-0.232-7.25,14.848-14.674,21.575-14.848c2.668-0.059,3.77,2.088,3.77,2.783c0,0.696-1.508,1.276-2.03,1.45
		c1.102,0.464,1.682,1.102,1.682,2.378c0,1.856-5.045,5.916-5.045,8.642c0,0.986,0.87,1.393,1.798,1.393
		c2.436,0,5.742-2.958,8.236-4.641l0.464,2.146c-2.494,2.842-10.266,9.048-13.108,9.048c-1.914,0-2.784-1.393-2.784-3.074
		c0-1.855,1.392-4.93,2.146-6.496l-0.116-0.115L60.239,40.413z M53.221,38.905c0.058,0.29,0.29,1.334,1.16,1.16
		c1.16-0.231,2.958-0.058,14.442-11.657l-0.116-0.116C54.903,32.525,53.221,36.063,53.221,38.905z"/>
	<path fill="#FFFFFF" d="M97.475,35.773c-3.19,3.306-8.642,9.164-13.629,9.164c-4.234,0-5.162-4.118-5.162-7.54
		c0-6.09,2.61-12.644,6.38-17.283c5.104-6.322,10.614-11.716,12.47-11.716c0.986,0,1.218,1.392,1.16,2.146
		c-0.406,5.51-1.914,10.614-14.5,22.794c-0.522,0.985-0.696,2.609-0.406,4.002c0.522,1.334,1.334,2.494,2.9,2.494
		c3.19,0,7.656-3.712,9.976-5.801L97.475,35.773z M85.469,28.002c4.118-3.828,7.714-9.396,8.758-12.702
		c-2.842,1.393-6.148,6.612-8.874,12.586L85.469,28.002z"/>
	<path fill="#FFFFFF" d="M117.948,35.716c-3.538,4.118-9.918,9.569-15.659,9.569c-4.234,0-6.207-3.77-6.322-7.598
		c-0.232-7.598,8.178-15.369,15.718-15.312c1.855,0,4.176,0.464,4.176,2.784c0,2.842-2.842,7.134-13.978,10.787l-0.116,1.276
		c-0.174,2.204,1.739,2.958,3.596,2.958c4.118,0,8.99-4.234,12.063-6.67L117.948,35.716z M110.756,26.378
		c0-0.406-0.289-0.754-0.695-0.638c-2.9,0.754-6.264,3.537-7.83,7.365C107.334,31.365,110.814,27.364,110.756,26.378z"/>
	<path fill="#FFFFFF" d="M137.263,20.172c-2.727,5.51-3.19,7.656-9.57,7.25c-1.972,2.552-5.277,7.308-5.277,10.788
		c0,1.275,0.405,2.029,1.739,2.029c1.856,0,3.944-1.739,9.976-6.031l0.29,2.552c-3.422,3.132-9.686,9.338-14.615,9.338
		c-2.262,0-3.654-1.566-3.654-3.886c0-1.914,0.754-4.118,1.509-5.801l-0.116-0.115l-2.958,2.378l-0.638-2.204
		c3.479-2.668,6.669-5.626,8.815-9.28c-3.538,0-2.437-0.231-5.51,0.232l0.638-1.044c3.132-5.104,3.596-6.032,9.802-6.264
		c1.74-2.378,3.016-5.104,6.38-5.104c0.754,0,1.856,0.175,1.856,1.103c0,1.044-1.683,2.958-2.263,3.77L137.263,20.172z"/>
	<path fill="#FFFFFF" d="M154.198,20.172c-2.727,5.51-3.19,7.656-9.57,7.25c-1.972,2.552-5.277,7.308-5.277,10.788
		c0,1.275,0.405,2.029,1.739,2.029c1.856,0,3.944-1.739,9.976-6.031l0.29,2.552c-3.422,3.132-9.686,9.338-14.615,9.338
		c-2.262,0-3.654-1.566-3.654-3.886c0-1.914,0.754-4.118,1.509-5.801l-0.116-0.115l-2.958,2.378l-0.638-2.204
		c3.479-2.668,6.669-5.626,8.815-9.28c-3.538,0-2.437-0.231-5.51,0.232l0.638-1.044c3.132-5.104,3.596-6.032,9.802-6.264
		c1.74-2.378,3.016-5.104,6.38-5.104c0.754,0,1.856,0.175,1.856,1.103c0,1.044-1.683,2.958-2.263,3.77L154.198,20.172z"/>
	<path fill="#FFFFFF" d="M172.525,35.716c-3.538,4.118-9.918,9.569-15.66,9.569c-4.233,0-6.205-3.77-6.321-7.598
		c-0.232-7.598,8.178-15.369,15.718-15.312c1.855,0,4.176,0.464,4.176,2.784c0,2.842-2.842,7.134-13.978,10.787l-0.116,1.276
		c-0.174,2.204,1.74,2.958,3.596,2.958c4.118,0,8.99-4.234,12.063-6.67L172.525,35.716z M165.333,26.378
		c0-0.406-0.289-0.754-0.695-0.638c-2.9,0.754-6.264,3.537-7.83,7.365C161.911,31.365,165.392,27.364,165.333,26.378z"/>
	<path fill="#FFFFFF" d="M191.896,34.382l0.58,2.204c-3.538,3.537-9.86,8.815-14.5,8.583c-3.886-0.174-8.178-2.378-9.222-6.611
		c-0.348,0.348-0.754,0.754-1.276,0.754c-0.579,0-0.985-0.58-0.985-1.102c0-0.754,0.928-1.566,1.392-2.03l12.586-11.542
		c0.116-1.914,1.218-3.77,3.306-3.77c1.74,0,2.088,0.521,2.262,2.146c0.232,2.204,1.103,4.176,1.103,6.729
		c0,4.756-3.828,8.293-7.54,10.556c3.712,0.638,5.974-1.103,8.815-3.248L191.896,34.382z M172.177,35.6
		c2.146,0.116,3.422,1.914,4.524,3.422c3.479-2.146,4.407-3.132,4.581-6.496c-0.174-1.218-0.405-2.783-0.754-4.756L172.177,35.6z"/>
</g>
</svg>
